<?xml version="1.0" standalone="no"?>
<!DOCTYPE svg PUBLIC "-//W3C//DTD SVG 1.1//EN" "http://www.w3.org/Graphics/SVG/1.1/DTD/svg11.dtd">
<!--Generator: Xara Designer (www.xara.com), SVG filter version: 6.6.0.9-->
<svg fill="none" fill-rule="evenodd" stroke="black" stroke-width="0.501" stroke-linejoin="bevel" stroke-miterlimit="10" font-family="Times New Roman" font-size="16" style="font-variant-ligatures:none" xmlns:xlink="http://www.w3.org/1999/xlink" xmlns="http://www.w3.org/2000/svg" version="1.1" overflow="visible" width="19.268pt" height="18.716pt" viewBox="133.162 -545.655 19.268 18.716">
 <defs>
  <style type="text/css">@import url('https://themes.googleusercontent.com/fonts/css?family=Open Sans:400,600');</style>
 </defs>
 <g id="Layer 1" transform="scale(1 -1)">
  <rect x="-1.812" y="-1.064" width="3.624" height="2.129" transform="translate(142.519 543.842) rotate(-90)" fill="#ff7f7f" stroke-linecap="round" stroke-width="0.051" stroke="none" stroke-linejoin="miter"/>
  <rect x="-1.813" y="-1.064" width="3.626" height="2.129" transform="translate(142.519 528.752) rotate(-90)" fill="#ff7f7f" stroke-linecap="round" stroke-width="0.051" stroke="none" stroke-linejoin="miter"/>
  <rect x="-1.812" y="-1.064" width="3.625" height="2.128" transform="translate(146.291 542.832) rotate(-120.005)" fill="#ff7f7f" stroke-linecap="round" stroke-width="0.051" stroke="none" stroke-linejoin="miter"/>
  <rect x="-1.813" y="-1.063" width="3.626" height="2.126" transform="translate(138.748 529.762) rotate(-120.025)" fill="#ff7f7f" stroke-linecap="round" stroke-width="0.051" stroke="none" stroke-linejoin="miter"/>
  <rect x="-1.813" y="-1.064" width="3.627" height="2.128" transform="translate(135.985 532.525) rotate(-149.986)" fill="#ff7f7f" stroke-linecap="round" stroke-width="0.051" stroke="none" stroke-linejoin="miter"/>
  <rect x="-1.813" y="-1.064" width="3.626" height="2.129" transform="translate(134.975 536.297) rotate(180)" fill="#ff7f7f" stroke-linecap="round" stroke-width="0.051" stroke="none" stroke-linejoin="miter"/>
  <rect x="-1.813" y="-1.063" width="3.627" height="2.126" transform="translate(135.985 540.069) rotate(149.986)" fill="#ff7f7f" stroke-linecap="round" stroke-width="0.051" stroke="none" stroke-linejoin="miter"/>
  <rect x="-1.813" y="-1.063" width="3.626" height="2.126" transform="translate(146.291 529.762) rotate(119.994)" fill="#ff7f7f" stroke-linecap="round" stroke-width="0.051" stroke="none" stroke-linejoin="miter"/>
  <rect x="-1.813" y="-1.064" width="3.627" height="2.128" transform="translate(138.748 542.832) rotate(120.014)" fill="#ff7f7f" stroke-linecap="round" stroke-width="0.051" stroke="none" stroke-linejoin="miter"/>
  <rect x="-1.813" y="-1.064" width="3.627" height="2.128" transform="translate(149.607 532.525) rotate(-30.0136)" fill="#443364" stroke-linecap="round" stroke-width="0.051" stroke="none" stroke-linejoin="miter"/>
  <rect x="-1.812" y="-1.064" width="3.624" height="2.129" transform="translate(150.618 536.297)" fill="#443364" stroke-linecap="round" stroke-width="0.051" stroke="none" stroke-linejoin="miter"/>
  <rect x="-1.813" y="-1.063" width="3.627" height="2.126" transform="translate(149.607 540.069) rotate(30.0136)" fill="#443364" stroke-linecap="round" stroke-width="0.051" stroke="none" stroke-linejoin="miter"/>
 </g>
</svg>
